{
  "version": "1.0",
  "id": "62b8e6ff-008a-4e08-ba92-ea2d0fed2b83",
  "name": "aa",
  "createdAt": 1765896422357,
  "duration": 10045,
  "metadata": {},
  "events": [
    {
      "type": "noteOn",
      "note": 55,
      "velocity": 53,
      "timestamp": 0,
      "channel": 0
    },
    {
      "type": "noteOn",
      "note": 55,
      "velocity": 53,
      "timestamp": 0.20000000298023224,
      "channel": 0
    },
    {
      "type": "noteOn",
      "note": 55,
      "velocity": 53,
      "timestamp": 0.30000000074505806,
      "channel": 0
    },
    {
      "type": "noteOn",
      "note": 59,
      "velocity": 52,
      "timestamp": 444.5,
      "channel": 0
    },
    {
      "type": "noteOn",
      "note": 59,
      "velocity": 52,
      "timestamp": 444.70000000298023,
      "channel": 0
    },
    {
      "type": "noteOn",
      "note": 59,
      "velocity": 52,
      "timestamp": 444.80000000074506,
      "channel": 0
    },
    {
      "type": "noteOff",
      "note": 55,
      "velocity": 0,
      "timestamp": 519.6000000014901,
      "channel": 0
    },
    {
      "type": "noteOff",
      "note": 55,
      "velocity": 0,
      "timestamp": 519.8000000007451,
      "channel": 0
    },
    {
      "type": "noteOff",
      "note": 55,
      "velocity": 0,
      "timestamp": 519.8000000007451,
      "channel": 0
    },
    {
      "type": "noteOn",
      "note": 62,
      "velocity": 42,
      "timestamp": 877.5,
      "channel": 0
    },
    {
      "type": "noteOn",
      "note": 62,
      "velocity": 42,
      "timestamp": 877.6000000014901,
      "channel": 0
    },
    {
      "type": "noteOn",
      "note": 62,
      "velocity": 42,
      "timestamp": 877.8000000007451,
      "channel": 0
    },
    {
      "type": "noteOff",
      "note": 59,
      "velocity": 0,
      "timestamp": 908.8000000007451,
      "channel": 0
    },
    {
      "type": "noteOff",
      "note": 59,
      "velocity": 0,
      "timestamp": 908.9000000022352,
      "channel": 0
    },
    {
      "type": "noteOff",
      "note": 59,
      "velocity": 0,
      "timestamp": 908.9000000022352,
      "channel": 0
    },
    {
      "type": "noteOn",
      "note": 59,
      "velocity": 52,
      "timestamp": 1281.4000000022352,
      "channel": 0
    },
    {
      "type": "noteOn",
      "note": 59,
      "velocity": 52,
      "timestamp": 1281.6000000014901,
      "channel": 0
    },
    {
      "type": "noteOn",
      "note": 59,
      "velocity": 52,
      "timestamp": 1281.7000000029802,
      "channel": 0
    },
    {
      "type": "noteOff",
      "note": 62,
      "velocity": 0,
      "timestamp": 1332.5,
      "channel": 0
    },
    {
      "type": "noteOff",
      "note": 62,
      "velocity": 0,
      "timestamp": 1339.7000000029802,
      "channel": 0
    },
    {
      "type": "noteOff",
      "note": 62,
      "velocity": 0,
      "timestamp": 1339.800000000745,
      "channel": 0
    },
    {
      "type": "noteOn",
      "note": 62,
      "velocity": 48,
      "timestamp": 1722.5,
      "channel": 0
    },
    {
      "type": "noteOn",
      "note": 62,
      "velocity": 48,
      "timestamp": 1722.7000000029802,
      "channel": 0
    },
    {
      "type": "noteOn",
      "note": 62,
      "velocity": 48,
      "timestamp": 1722.800000000745,
      "channel": 0
    },
    {
      "type": "noteOff",
      "note": 59,
      "velocity": 0,
      "timestamp": 1737.4000000022352,
      "channel": 0
    },
    {
      "type": "noteOff",
      "note": 59,
      "velocity": 0,
      "timestamp": 1737.5,
      "channel": 0
    },
    {
      "type": "noteOff",
      "note": 59,
      "velocity": 0,
      "timestamp": 1737.6000000014901,
      "channel": 0
    },
    {
      "type": "noteOn",
      "note": 59,
      "velocity": 53,
      "timestamp": 2122.7000000029802,
      "channel": 0
    },
    {
      "type": "noteOn",
      "note": 59,
      "velocity": 53,
      "timestamp": 2122.7000000029802,
      "channel": 0
    },
    {
      "type": "noteOn",
      "note": 59,
      "velocity": 53,
      "timestamp": 2122.800000000745,
      "channel": 0
    },
    {
      "type": "noteOff",
      "note": 62,
      "velocity": 0,
      "timestamp": 2165.800000000745,
      "channel": 0
    },
    {
      "type": "noteOff",
      "note": 62,
      "velocity": 0,
      "timestamp": 2166,
      "channel": 0
    },
    {
      "type": "noteOff",
      "note": 62,
      "velocity": 0,
      "timestamp": 2166.2000000029802,
      "channel": 0
    },
    {
      "type": "noteOn",
      "note": 55,
      "velocity": 43,
      "timestamp": 2553.7000000029802,
      "channel": 0
    },
    {
      "type": "noteOn",
      "note": 55,
      "velocity": 43,
      "timestamp": 2553.800000000745,
      "channel": 0
    },
    {
      "type": "noteOn",
      "note": 55,
      "velocity": 43,
      "timestamp": 2553.800000000745,
      "channel": 0
    },
    {
      "type": "noteOff",
      "note": 59,
      "velocity": 0,
      "timestamp": 2604.900000002235,
      "channel": 0
    },
    {
      "type": "noteOff",
      "note": 59,
      "velocity": 0,
      "timestamp": 2605,
      "channel": 0
    },
    {
      "type": "noteOff",
      "note": 59,
      "velocity": 0,
      "timestamp": 2605.10000000149,
      "channel": 0
    },
    {
      "type": "noteOff",
      "note": 55,
      "velocity": 0,
      "timestamp": 3483.60000000149,
      "channel": 0
    },
    {
      "type": "noteOff",
      "note": 55,
      "velocity": 0,
      "timestamp": 3483.900000002235,
      "channel": 0
    },
    {
      "type": "noteOff",
      "note": 55,
      "velocity": 0,
      "timestamp": 3483.900000002235,
      "channel": 0
    }
  ]
}